<svg width="12" height="23" viewBox="0 0 12 23" fill="none" xmlns="http://www.w3.org/2000/svg">
<path d="M3.81298 7.00789L3.81298 22.0919C3.81298 22.251 3.8762 22.4036 3.98872 22.5162C4.10124 22.6287 4.25385 22.6919 4.41298 22.6919H7.21298C7.29178 22.6919 7.3698 22.6764 7.44259 22.6462C7.51539 22.6161 7.58153 22.5719 7.63725 22.5162C7.69296 22.4604 7.73716 22.3943 7.76731 22.3215C7.79746 22.2487 7.81298 22.1707 7.81298 22.0919L7.81298 7.00789H10.113C10.35 7.00749 10.5815 6.93693 10.7784 6.8051C10.9754 6.67328 11.1289 6.4861 11.2196 6.26716C11.3103 6.04823 11.3341 5.80734 11.2881 5.57487C11.2421 5.3424 11.1283 5.12876 10.961 4.96089L6.66098 0.660894C6.5495 0.549023 6.41703 0.460258 6.27117 0.399693C6.1253 0.339127 5.96892 0.307949 5.81098 0.307949C5.65305 0.307949 5.49666 0.339127 5.3508 0.399693C5.20494 0.460258 5.07247 0.549023 4.96098 0.660894L0.660984 4.96089C0.493716 5.12876 0.379897 5.3424 0.333878 5.57487C0.28786 5.80734 0.311702 6.04823 0.4024 6.26716C0.493098 6.4861 0.646589 6.67328 0.84352 6.8051C1.04045 6.93693 1.272 7.00749 1.50898 7.00789H3.81298Z" fill="white"/>
</svg>
